<svg width="120" height="61" viewBox="0 0 120 61" fill="none" xmlns="http://www.w3.org/2000/svg">
<path d="M0 50.1465V49.7251H2.28732C2.79221 49.7251 3.25694 49.268 3.60501 48.3556L12.1346 26.2627H12.5994L22.1369 49.727H25.4722V50.1484H14.3837V49.727H17.8338L14.9651 42.2812H6.39722L3.99324 48.3575C3.48835 49.5163 3.68342 49.727 3.87658 49.727H6.8237V50.1484H0V50.1465ZM6.51388 41.8918H14.8102L10.7003 31.1425L6.51197 41.8918H6.51388Z" fill="white"/>
<path d="M25.5117 61.001V60.5796H27.9157V35.6066H25.5117V35.1852H31.1344V36.3797C32.0658 35.362 33.2668 34.8691 34.7394 34.8691C36.9101 34.8691 38.8111 35.6762 40.4003 37.3279C42.0278 38.9796 42.8425 40.7705 42.8425 42.7721C42.8425 44.7737 42.068 46.5646 40.5552 48.1467C39.0425 49.693 37.2199 50.4643 35.011 50.4643C33.46 50.4643 32.1805 49.9376 31.1344 48.918V60.5796H33.5001V61.001H25.5136H25.5117ZM37.6483 49.3036C38.9277 48.3198 39.5474 46.1432 39.5474 42.7702C39.5474 39.3972 38.9277 37.0457 37.6483 36.0618C36.9885 35.5351 36.0208 35.2886 34.7413 35.2886C33.2285 35.2886 31.7559 35.9207 31.1363 37.01V47.8984C31.7177 49.2679 33.4236 50.0768 35.0129 50.0768C36.1374 50.0768 36.9904 49.8304 37.6502 49.3036H37.6483Z" fill="white"/>
<path d="M53.7755 50.1467H45.7891V49.7253H48.1529V35.605H45.7891V35.1836H51.3716V49.7253H53.7755V50.1467Z" fill="white"/>
<path d="M47.7969 28.5145C47.7969 27.4704 48.6709 26.6445 49.7419 26.6445C50.8128 26.6445 51.727 27.4723 51.727 28.5145C51.727 29.5566 50.853 30.3844 49.7419 30.3844C48.6307 30.3844 47.7969 29.5566 47.7969 28.5145Z" fill="white"/>
<path d="M58.7017 48.1806C57.1124 46.6699 56.3359 44.8076 56.3359 42.6667C56.3359 40.5259 57.1105 38.6617 58.7017 37.1529C60.2909 35.6423 62.1919 34.8691 64.4391 34.8691C67.7343 34.8691 70.5513 37.0137 70.5513 38.8404C70.5513 39.8581 70.0082 40.351 68.9238 40.351C67.9542 40.351 67.3346 39.8242 67.3346 39.0868C67.3346 38.5601 67.7228 38.0333 67.7228 37.3298C67.7228 36.0656 66.3018 35.2548 64.441 35.2548C63.1616 35.2548 62.1919 35.5351 61.5321 36.0618C60.1743 37.0796 59.633 38.7313 59.633 42.6649C59.633 46.5985 60.1762 48.2502 61.5321 49.2679C62.1919 49.7946 63.1596 50.0749 64.441 50.0749C66.9616 50.0749 68.9774 49.0572 70.4901 46.9841L70.8382 47.1591C69.2489 49.3714 67.1165 50.4606 64.441 50.4606C62.1919 50.4606 60.2928 49.6874 58.7036 48.1768L58.7017 48.1806Z" fill="white"/>
<path d="M75.5303 48.2163C74.0175 46.7057 73.2812 44.8433 73.2812 42.7025C73.2812 40.5617 74.0175 38.6635 75.5303 37.1529C77.0431 35.6423 78.9422 34.8691 81.153 34.8691C83.3638 34.8691 85.3795 35.9226 86.4257 37.3636C87.4718 38.8046 88.0149 40.3491 88.0149 41.7186V41.824H76.6931C76.6549 41.9989 76.6548 42.315 76.6548 42.7025C76.6548 44.7041 76.7715 46.1808 77.0029 47.129C77.2745 48.0771 77.701 48.7807 78.3206 49.2717C79.0187 49.7984 79.9481 50.0787 81.1511 50.0787C83.7482 50.0787 85.8041 49.0252 87.3169 46.9183L87.6267 47.129C86.0374 49.3413 83.8649 50.4662 81.1511 50.4662C78.9403 50.4662 77.0412 49.7288 75.5284 48.2182L75.5303 48.2163ZM84.758 41.4364C84.7197 38.6259 84.2933 36.835 83.4403 36.028C82.8589 35.5012 82.1226 35.2548 81.153 35.2548C79.9519 35.2548 78.9823 35.5012 78.3225 36.028C77.3147 36.835 76.7715 38.6278 76.695 41.4364H84.7599H84.758Z" fill="white"/>
<path d="M119.999 50.1465H111.973V49.7251H114.377V38.8724C114.377 36.5886 112.749 35.2906 111.198 35.2906C109.84 35.2906 108.756 35.6762 107.979 36.4494C107.203 37.2226 106.817 38.0654 106.817 38.9439V49.727H109.182V50.1484H101.196V49.727H103.521V38.8743C103.521 36.5905 101.932 35.2925 100.381 35.2925C98.2105 35.2925 96.736 36.3817 95.9997 38.5244V49.7289H98.3654V50.1502H90.3789V49.7289H92.7829V35.6085H90.3789V35.1871H96.0016V37.6101C96.6614 35.7477 98.4056 34.8711 100.383 34.8711C103.757 34.8711 105.811 35.855 106.625 37.787C107.285 35.855 109.301 34.8711 111.2 34.8711C115.465 34.8711 117.597 36.5924 117.597 39.9993V49.7289H120.001V50.1502L119.999 50.1465Z" fill="white"/>
<path d="M24.5963 24.6167C24.7187 24.28 24.8048 23.9245 24.9712 23.6103C27.0175 19.735 29.8174 16.5106 33.606 14.1949C36.5914 12.3701 39.8923 11.881 43.3405 12.2629C45.0005 12.4472 46.651 12.7068 48.3014 12.9664C53.2337 13.7453 57.6477 12.5977 61.4478 9.41848C63.4387 7.75361 65.2938 5.9326 67.2196 4.1906C68.1242 3.37228 69.0269 2.55019 69.9736 1.7789C70.8265 1.08473 71.7828 0.550469 72.8557 0.221258C74.2001 -0.188845 75.4662 -0.00260524 76.715 0.563638C77.9677 1.13176 79.031 1.96514 79.9605 2.9396C81.7927 4.8622 83.6248 6.79043 85.3594 8.79768C89.6682 13.7848 94.0057 18.7493 97.9014 24.0637C98.0716 24.2951 98.1806 24.4474 98.3948 24.7672C98.4809 24.8952 98.479 25.1416 98.3317 25.0889C97.9167 24.9384 97.6662 24.6544 97.452 24.4512C93.8623 21.0462 90.4542 17.4738 87.1973 13.7603C84.7455 10.9667 82.2822 8.18252 79.7922 5.42091C79.0827 4.63457 78.2794 3.92912 77.4915 3.21614C77.1473 2.90386 76.7456 2.64237 76.3459 2.39781C74.9996 1.57573 73.6015 1.48355 72.2284 2.28682C71.3926 2.77594 70.5703 3.31772 69.8454 3.94793C68.3327 5.26101 66.9098 6.67192 65.4085 7.99817C64.2151 9.0554 62.9931 10.0882 61.7289 11.0608C58.1048 13.8506 53.9872 15.0132 49.4088 14.4695C47.5632 14.2513 45.7292 13.939 43.8932 13.6493C39.4161 12.9401 35.3769 13.8656 31.835 16.7157C29.1997 18.8358 26.9544 21.287 25.2026 24.1653C25.084 24.359 24.9329 24.6073 24.7895 24.7861C24.6518 24.9516 24.5562 24.7616 24.5944 24.613L24.5963 24.6167Z" fill="white"/>
</svg>
